name Precision Landing04_filtered_grf.mot
datacolumns 37
datarows 14
range 0.002500 0.009000
endheader
time	1_ground_force_vx	1_ground_force_vy	1_ground_force_vz	1_ground_force_px	1_ground_force_py	1_ground_force_pz	1_ground_torque_x	1_ground_torque_y	1_ground_torque_z	2_ground_force_vx	2_ground_force_vy	2_ground_force_vz	2_ground_force_px	2_ground_force_py	2_ground_force_pz	2_ground_torque_x	2_ground_torque_y	2_ground_torque_z	3_ground_force_vx	3_ground_force_vy	3_ground_force_vz	3_ground_force_px	3_ground_force_py	3_ground_force_pz	3_ground_torque_x	3_ground_torque_y	3_ground_torque_z	4_ground_force_vx	4_ground_force_vy	4_ground_force_vz	4_ground_force_px	4_ground_force_py	4_ground_force_pz	4_ground_torque_x	4_ground_torque_y	4_ground_torque_z
            0.002500	           -0.000000	            0.000000	            0.000000	           -0.030732	            0.000000	           -0.003067	            0.000000	            0.000000	           -0.000000	            0.000000	            0.000000	            0.000000	           -0.134152	            0.000000	            0.385921	            0.000000	           -0.000000	            0.000000	          -12.687030	          344.465936	          101.630210	            0.352220	            1.255278	            1.891925	            0.609567	          -16.550382	           -4.882976	           85.898724	          340.750732	           42.833075	           -0.289687	            1.264331	            1.901028	            4.234401	           16.797402	            2.111468
            0.003000	           -0.000000	            0.000000	            0.000000	           -0.030732	            0.000000	           -0.003067	            0.000000	            0.000000	           -0.000000	            0.000000	            0.000000	            0.000000	           -0.134152	            0.000000	            0.385921	            0.000000	           -0.000000	            0.000000	          -12.714506	          344.727682	          101.698713	            0.352220	            1.255278	            1.891925	            0.610887	          -16.562958	           -4.886267	           85.993388	          341.314065	           43.185549	           -0.289687	            1.264331	            1.901028	            4.244038	           16.844899	            2.131340
            0.003500	           -0.000000	            0.000000	            0.000000	           -0.030732	            0.000000	           -0.003067	            0.000000	            0.000000	           -0.000000	            0.000000	            0.000000	            0.000000	           -0.134152	            0.000000	            0.385921	            0.000000	           -0.000000	            0.000000	          -12.743832	          345.004721	          101.770367	            0.352222	            1.255268	            1.891904	            0.612294	          -16.576205	           -4.889691	           86.090206	          341.893492	           43.536539	           -0.289689	            1.264329	            1.901023	            4.253710	           16.892928	            2.151137
            0.004000	           -0.000000	            0.000000	            0.000000	           -0.030732	            0.000000	           -0.003067	            0.000000	            0.000000	           -0.000000	            0.000000	            0.000000	            0.000000	           -0.134152	            0.000000	            0.385921	            0.000000	           -0.000000	            0.000000	          -12.774980	          345.297330	          101.845127	            0.352224	            1.255259	            1.891883	            0.613786	          -16.590140	           -4.893246	           86.188774	          342.488752	           43.884958	           -0.289692	            1.264328	            1.901019	            4.263371	           16.941380	            2.170792
            0.004500	           -0.000000	            0.000000	            0.000000	           -0.030732	            0.000000	           -0.003067	            0.000000	            0.000000	           -0.000000	            0.000000	            0.000000	            0.000000	           -0.134152	            0.000000	            0.385921	            0.000000	           -0.000000	            0.000000	          -12.807910	          345.605759	          101.922946	            0.352226	            1.255249	            1.891862	            0.615362	          -16.604778	           -4.896932	           86.288680	          343.099583	           44.229781	           -0.289694	            1.264327	            1.901014	            4.272980	           16.990151	            2.190241
            0.005000	           -0.000000	            0.000000	            0.000000	           -0.030732	            0.000000	           -0.003067	            0.000000	            0.000000	           -0.000000	            0.000000	            0.000000	            0.000000	           -0.134152	            0.000000	            0.385921	            0.000000	           -0.000000	            0.000000	          -12.842575	          345.930231	          102.003777	            0.352228	            1.255239	            1.891841	            0.617018	          -16.620133	           -4.900746	           86.389515	          343.725727	           44.570048	           -0.289697	            1.264326	            1.901009	            4.282494	           17.039143	            2.209423
            0.005500	           -0.000000	            0.000000	            0.000000	           -0.030732	            0.000000	           -0.003067	            0.000000	            0.000000	           -0.000000	            0.000000	            0.000000	            0.000000	           -0.134152	            0.000000	            0.385921	            0.000000	           -0.000000	            0.000000	          -12.881328	          346.270297	          102.089459	            0.352230	            1.255231	            1.891822	            0.618870	          -16.636187	           -4.904779	           86.493165	          344.366078	           44.906966	           -0.289698	            1.264325	            1.901005	            4.291985	           17.088219	            2.228385
            0.006000	           -0.000000	            0.000000	            0.000000	           -0.030732	            0.000000	           -0.003067	            0.000000	            0.000000	           -0.000000	            0.000000	            0.000000	            0.000000	           -0.134152	            0.000000	            0.385921	            0.000000	           -0.000000	            0.000000	          -12.921536	          346.626771	          102.178069	            0.352232	            1.255222	            1.891803	            0.620789	          -16.652985	           -4.908939	           86.596937	          345.021225	           45.237647	           -0.289700	            1.264324	            1.901001	           46.780281	            3.749509	           23.037933
            0.006500	           -0.000000	            0.000000	            0.000000	           -0.030732	            0.000000	           -0.003067	            0.000000	            0.000000	           -0.000000	            0.000000	            0.000000	            0.000000	           -0.134152	            0.000000	            0.385921	            0.000000	           -0.000000	            0.000000	          -12.963121	          346.999792	          102.269554	            0.352234	            1.255213	            1.891784	            0.622773	          -16.670535	           -4.913225	           86.700439	          345.690917	           45.561374	           -0.289702	            1.264322	            1.900998	           46.881445	            3.765792	           23.082252
            0.007000	           -0.000000	            0.000000	            0.000000	           -0.030732	            0.000000	           -0.003067	            0.000000	            0.000000	           -0.000000	            0.000000	            0.000000	            0.000000	           -0.134152	            0.000000	            0.385921	            0.000000	           -0.000000	            0.000000	          -13.006001	          347.389466	          102.363859	            0.352236	            1.255205	            1.891766	            0.624818	          -16.688848	           -4.917636	           86.803291	          346.374908	           45.877514	           -0.289704	            1.264321	            1.900994	           46.983930	            3.782530	           23.127254
            0.007500	           -0.000000	            0.000000	            0.000000	           -0.030732	            0.000000	           -0.003067	            0.000000	            0.000000	           -0.000000	            0.000000	            0.000000	            0.000000	           -0.134152	            0.000000	            0.385921	            0.000000	           -0.000000	            0.000000	          -13.050085	          347.795866	          102.460926	            0.352238	            1.255196	            1.891747	            0.626919	          -16.707931	           -4.922169	           86.905128	          347.072954	           46.185528	           -0.289706	            1.264320	            1.900990	           47.087662	            3.799732	           23.172907
            0.008000	           -0.000000	            0.000000	            0.000000	           -0.030732	            0.000000	           -0.003067	            0.000000	            0.000000	           -0.000000	            0.000000	            0.000000	            0.000000	           -0.134152	            0.000000	            0.385921	            0.000000	           -0.000000	            0.000000	          -13.098842	          348.217849	          102.564247	            0.352240	            1.255189	            1.891732	            0.629244	          -16.727733	           -4.926994	           87.009365	          347.783429	           46.488293	           -0.289707	            1.264319	            1.900987	           47.192367	            3.816672	           23.219714
            0.008500	           -0.000000	           -0.000000	            0.000000	           -0.030732	            0.000000	           -0.003067	            0.000000	            0.000000	           -0.000000	            0.000000	            0.000000	            0.000000	           -0.134152	            0.000000	            0.385921	            0.000000	           -0.000000	            0.000000	          -13.148327	          348.656598	          102.670249	            0.352242	            1.255183	            1.891717	            0.631602	          -16.748315	           -4.931941	           87.111927	          348.507475	           46.782135	           -0.289708	            1.264318	            1.900984	           47.298183	            3.834096	           23.267111
            0.009000	           -0.000000	           -0.000000	            0.000000	           -0.030732	            0.000000	           -0.003067	            0.000000	            0.000000	           -0.000000	            0.000000	            0.000000	            0.000000	           -0.134152	            0.000000	            0.385921	            0.000000	           -0.000000	            0.000000	          -13.198433	          349.112079	          102.778867	            0.352243	            1.255176	            1.891702	            0.633990	          -16.769680	           -4.937007	           87.212511	          349.244858	           47.066784	           -0.289708	            1.264316	            1.900981	           47.405050	            3.852015	           23.315068
